# xmcd
#
# Track frame offsets:
#	150
#	15092
#	36426
#	58152
#	72420
#	90703
#	107356
#	129403
#	145723
#	165486
#	186018
#	209221
#
# Disc length: 2962 seconds
#
# Revision: 0
# Processed by: cddbd v1.5.2PL0 Copyright (c) Steve Scherf et al.
# Submitted via: EasyCDDAExtractor 10.0.2.1
#
DISCID=a30b900c
DTITLE=Blues Juice - Drippin' Water
DYEAR=2011
DGENRE=Blues
TTITLE0=Walking the Dog
TTITLE1=Drippin' Water Blues
TTITLE2=Jesus Is On the Mainline
TTITLE3=Green River
TTITLE4=Dust My Broom
TTITLE5=Sometimes I Feel Like a Motherless Child
TTITLE6=Late Night Blues
TTITLE7=Strange Sensation
TTITLE8=Much Too Beautiful
TTITLE9=Blackout
TTITLE10=Standing In the Doorway
TTITLE11=Deeply Felt Love and Tenderness
EXTD=
EXTT0=
EXTT1=
EXTT2=
EXTT3=
EXTT4=
EXTT5=
EXTT6=
EXTT7=
EXTT8=
EXTT9=
EXTT10=
EXTT11=
PLAYORDER=
